<svg xmlns="http://www.w3.org/2000/svg" viewBox="0 0 32 32">
  <rect width="32" height="32" fill="#0a0e0a"/>
  <!-- a curled pixel moustache, in the site's Game of Life palette -->
    <rect x="2" y="8" width="2" height="2" fill="#6b8e23"/>
  <rect x="4" y="8" width="2" height="2" fill="#6b8e23"/>
  <rect x="6" y="8" width="2" height="2" fill="#6b8e23"/>
  <rect x="24" y="8" width="2" height="2" fill="#6b8e23"/>
  <rect x="26" y="8" width="2" height="2" fill="#6b8e23"/>
  <rect x="28" y="8" width="2" height="2" fill="#6b8e23"/>
  <rect x="0" y="10" width="2" height="2" fill="#6b8e23"/>
  <rect x="6" y="10" width="2" height="2" fill="#6b8e23"/>
  <rect x="24" y="10" width="2" height="2" fill="#6b8e23"/>
  <rect x="30" y="10" width="2" height="2" fill="#6b8e23"/>
  <rect x="0" y="12" width="2" height="2" fill="#6b8e23"/>
  <rect x="6" y="12" width="2" height="2" fill="#6b8e23"/>
  <rect x="24" y="12" width="2" height="2" fill="#6b8e23"/>
  <rect x="30" y="12" width="2" height="2" fill="#6b8e23"/>
  <rect x="0" y="14" width="2" height="2" fill="#6b8e23"/>
  <rect x="2" y="14" width="2" height="2" fill="#6b8e23"/>
  <rect x="4" y="14" width="2" height="2" fill="#6b8e23"/>
  <rect x="12" y="14" width="2" height="2" fill="#6b8e23"/>
  <rect x="14" y="14" width="2" height="2" fill="#6b8e23"/>
  <rect x="16" y="14" width="2" height="2" fill="#6b8e23"/>
  <rect x="18" y="14" width="2" height="2" fill="#6b8e23"/>
  <rect x="26" y="14" width="2" height="2" fill="#6b8e23"/>
  <rect x="28" y="14" width="2" height="2" fill="#6b8e23"/>
  <rect x="30" y="14" width="2" height="2" fill="#6b8e23"/>
  <rect x="4" y="16" width="2" height="2" fill="#00563b"/>
  <rect x="10" y="16" width="2" height="2" fill="#00563b"/>
  <rect x="12" y="16" width="2" height="2" fill="#6b8e23"/>
  <rect x="14" y="16" width="2" height="2" fill="#6b8e23"/>
  <rect x="16" y="16" width="2" height="2" fill="#6b8e23"/>
  <rect x="18" y="16" width="2" height="2" fill="#6b8e23"/>
  <rect x="20" y="16" width="2" height="2" fill="#00563b"/>
  <rect x="26" y="16" width="2" height="2" fill="#00563b"/>
  <rect x="6" y="18" width="2" height="2" fill="#00563b"/>
  <rect x="8" y="18" width="2" height="2" fill="#00563b"/>
  <rect x="10" y="18" width="2" height="2" fill="#00563b"/>
  <rect x="20" y="18" width="2" height="2" fill="#00563b"/>
  <rect x="22" y="18" width="2" height="2" fill="#00563b"/>
  <rect x="24" y="18" width="2" height="2" fill="#00563b"/>
  <rect x="8" y="20" width="2" height="2" fill="#00563b"/>
  <rect x="22" y="20" width="2" height="2" fill="#00563b"/>
</svg>
