<svg xmlns="http://www.w3.org/2000/svg" viewBox="0 0 1200 750" role="img" aria-label="Case study image placeholder">
  <rect width="1200" height="750" fill="#10140f"/>
  <g fill="#00563b">
    <rect x="40" y="40" width="18" height="18"/><rect x="76" y="40" width="18" height="18"/>
    <rect x="58" y="76" width="18" height="18"/><rect x="130" y="76" width="18" height="18"/>
    <rect x="40" y="112" width="18" height="18"/><rect x="94" y="112" width="18" height="18"/>
    <rect x="1050" y="600" width="18" height="18"/><rect x="1086" y="600" width="18" height="18"/>
    <rect x="1068" y="636" width="18" height="18"/><rect x="1122" y="636" width="18" height="18"/>
    <rect x="1050" y="672" width="18" height="18"/><rect x="1104" y="672" width="18" height="18"/>
  </g>
  <g fill="#6b8e23">
    <rect x="58" y="40" width="18" height="18"/><rect x="76" y="76" width="18" height="18"/>
    <rect x="58" y="112" width="18" height="18"/><rect x="1068" y="600" width="18" height="18"/>
    <rect x="1086" y="636" width="18" height="18"/><rect x="1068" y="672" width="18" height="18"/>
  </g>
  <rect x="280" y="185" width="640" height="380" fill="#0a0e0a" stroke="#262b22" stroke-width="2"/>
  <line x1="280" y1="235" x2="920" y2="235" stroke="#262b22" stroke-width="2"/>
  <circle cx="310" cy="210" r="7" fill="#262b22"/>
  <circle cx="336" cy="210" r="7" fill="#262b22"/>
  <circle cx="362" cy="210" r="7" fill="#6b8e23"/>
  <rect x="320" y="280" width="340" height="22" fill="#262b22"/>
  <rect x="320" y="326" width="220" height="14" fill="#262b22"/>
  <rect x="320" y="356" width="280" height="14" fill="#262b22"/>
  <rect x="320" y="410" width="160" height="46" fill="#6b8e23"/>
  <text x="600" y="620" text-anchor="middle" fill="#9ba695" font-family="'JetBrains Mono', monospace" font-size="24">screenshot coming soon</text>
</svg>
