<svg xmlns="http://www.w3.org/2000/svg" viewBox="0 0 640 400" role="img" aria-label="Project preview placeholder">
  <rect width="640" height="400" fill="#10140f"/>
  <!-- dither field -->
  <g fill="#00563b">
    <rect x="24" y="24" width="10" height="10"/><rect x="64" y="24" width="10" height="10"/>
    <rect x="44" y="44" width="10" height="10"/><rect x="104" y="44" width="10" height="10"/>
    <rect x="24" y="64" width="10" height="10"/><rect x="84" y="64" width="10" height="10"/>
    <rect x="546" y="326" width="10" height="10"/><rect x="586" y="326" width="10" height="10"/>
    <rect x="566" y="346" width="10" height="10"/><rect x="606" y="346" width="10" height="10"/>
    <rect x="546" y="366" width="10" height="10"/><rect x="586" y="366" width="10" height="10"/>
    <rect x="566" y="306" width="10" height="10"/><rect x="526" y="346" width="10" height="10"/>
  </g>
  <g fill="#6b8e23">
    <rect x="44" y="24" width="10" height="10"/><rect x="64" y="44" width="10" height="10"/>
    <rect x="44" y="64" width="10" height="10"/><rect x="566" y="326" width="10" height="10"/>
    <rect x="586" y="346" width="10" height="10"/><rect x="566" y="366" width="10" height="10"/>
  </g>
  <!-- browser frame -->
  <rect x="140" y="100" width="360" height="200" fill="#0a0e0a" stroke="#262b22"/>
  <line x1="140" y1="128" x2="500" y2="128" stroke="#262b22"/>
  <circle cx="156" cy="114" r="4" fill="#262b22"/>
  <circle cx="170" cy="114" r="4" fill="#262b22"/>
  <circle cx="184" cy="114" r="4" fill="#6b8e23"/>
  <rect x="160" y="152" width="180" height="12" fill="#262b22"/>
  <rect x="160" y="176" width="120" height="8" fill="#262b22"/>
  <rect x="160" y="192" width="150" height="8" fill="#262b22"/>
  <rect x="160" y="220" width="90" height="26" fill="#6b8e23"/>
  <text x="320" y="336" text-anchor="middle" fill="#9ba695" font-family="'JetBrains Mono', monospace" font-size="15">screenshot coming soon</text>
</svg>
